HIERARCHY
ROOT hip
{
  OFFSET 0.00112043 5.09927 -9.65472
  CHANNELS 6 Xposition Yposition Zposition Zrotation Xrotation Yrotation
  JOINT abdomen
  {
    OFFSET 0 -1.186 -1.5018
    CHANNELS 3 Zrotation Xrotation Yrotation
    JOINT abdomen2
    {
      OFFSET 0 9.964 0.2134
      CHANNELS 3 Zrotation Xrotation Yrotation
      JOINT chest
      {
        OFFSET 0 13.134 -3.2573
        CHANNELS 3 Zrotation Xrotation Yrotation
        JOINT neck
        {
          OFFSET 0 20.686 -1.6905
          CHANNELS 3 Zrotation Xrotation Yrotation
          JOINT head
          {
            OFFSET 0 7.238 -0.1237
            CHANNELS 3 Zrotation Xrotation Yrotation
            End Site
            {
              OFFSET 0 0 0
            }
          }
        }
        JOINT lCollar
        {
          OFFSET 1.7069 20.075 5.0056
          CHANNELS 3 Zrotation Xrotation Yrotation
          JOINT lShldr
          {
            OFFSET 13.6458 -0.047 -4.849
            CHANNELS 3 Zrotation Xrotation Yrotation
            JOINT lForeArm
            {
              OFFSET 28.3255 -0.9759 2.2888
              CHANNELS 3 Zrotation Xrotation Yrotation
              JOINT lHand
              {
                OFFSET 22.1583 -0.53 10.8316
                CHANNELS 3 Zrotation Xrotation Yrotation
                JOINT lThumb1
                {
                  OFFSET 0.786 0.112 2.5817
                  CHANNELS 3 Zrotation Xrotation Yrotation
                  JOINT lThumb2
                  {
                    OFFSET 0.3601 -0.878 4.2331
                    CHANNELS 3 Zrotation Xrotation Yrotation
                    JOINT lThumb2_End
                    {
                      OFFSET 1.8127 -1.216 2.2227
                      CHANNELS 3 Zrotation Xrotation Yrotation
                      End Site
                      {
                        OFFSET 0.0181 -0.0122 0.0222
                      }
                    }
                  }
                }
                JOINT lCarpal1
                {
                  OFFSET 0.9571 1.114 1.7695
                  CHANNELS 3 Zrotation Xrotation Yrotation
                  JOINT lIndex1
                  {
                    OFFSET 4.1246 0.487 4.1451
                    CHANNELS 3 Zrotation Xrotation Yrotation
                    JOINT lIndex2
                    {
                      OFFSET 3.4052 -1.454 2.7682
                      CHANNELS 3 Zrotation Xrotation Yrotation
                      JOINT lIndex2_End
                      {
                        OFFSET 1.4531 -1.795 1.2713
                        CHANNELS 3 Zrotation Xrotation Yrotation
                        End Site
                        {
                          OFFSET 0.0145 -0.0179 0.0127
                        }
                      }
                    }
                  }
                  JOINT lMid1
                  {
                    OFFSET 5.6954 0.21 2.1184
                    CHANNELS 3 Zrotation Xrotation Yrotation
                    JOINT lMid2
                    {
                      OFFSET 3.9766 -1.54 2.3863
                      CHANNELS 3 Zrotation Xrotation Yrotation
                      JOINT lMid2_End
                      {
                        OFFSET 1.4042 -1.926 1.125
                        CHANNELS 3 Zrotation Xrotation Yrotation
                        End Site
                        {
                          OFFSET 0.014 -0.0193 0.0113
                        }
                      }
                    }
                  }
                }
                JOINT lCarpal2
                {
                  OFFSET 2.0956 0.66 -0.3894
                  CHANNELS 3 Zrotation Xrotation Yrotation
                  JOINT lRing1
                  {
                    OFFSET 5.0395 -0.09 2.4971
                    CHANNELS 3 Zrotation Xrotation Yrotation
                    JOINT lRing2
                    {
                      OFFSET 3.7921 -1.552 1.4806
                      CHANNELS 3 Zrotation Xrotation Yrotation
                      JOINT lRing2_End
                      {
                        OFFSET 1.4655 -1.808 0.9609
                        CHANNELS 3 Zrotation Xrotation Yrotation
                        End Site
                        {
                          OFFSET 0.0147 -0.0181 0.0096
                        }
                      }
                    }
                  }
                  JOINT lPinky1
                  {
                    OFFSET 4.9141 -1.269 0.3591
                    CHANNELS 3 Zrotation Xrotation Yrotation
                    JOINT lPinky2
                    {
                      OFFSET 3.1477 -1.685 0.8462
                      CHANNELS 3 Zrotation Xrotation Yrotation
                      JOINT lPinky2_End
                      {
                        OFFSET 0.8055 -1.585 0.7955
                        CHANNELS 3 Zrotation Xrotation Yrotation
                        End Site
                        {
                          OFFSET 0.0081 -0.0158 0.008
                        }
                      }
                    }
                  }
                }
              }
            }
          }
        }
        JOINT rCollar
        {
          OFFSET -1.7069 20.075 5.0056
          CHANNELS 3 Zrotation Xrotation Yrotation
          JOINT rShldr
          {
            OFFSET -13.6458 -0.047 -4.849
            CHANNELS 3 Zrotation Xrotation Yrotation
            JOINT rForeArm
            {
              OFFSET -28.3255 -0.9759 2.2888
              CHANNELS 3 Zrotation Xrotation Yrotation
              JOINT rHand
              {
                OFFSET -22.1583 -0.53 10.8316
                CHANNELS 3 Zrotation Xrotation Yrotation
                JOINT rThumb1
                {
                  OFFSET -0.786 0.112 2.5817
                  CHANNELS 3 Zrotation Xrotation Yrotation
                  JOINT rThumb2
                  {
                    OFFSET -0.3601 -0.878 4.2331
                    CHANNELS 3 Zrotation Xrotation Yrotation
                    JOINT rThumb2_End
                    {
                      OFFSET -1.8127 -1.216 2.2227
                      CHANNELS 3 Zrotation Xrotation Yrotation
                      End Site
                      {
                        OFFSET -0.0181 -0.0122 0.0222
                      }
                    }
                  }
                }
                JOINT rCarpal1
                {
                  OFFSET -0.9571 1.114 1.7695
                  CHANNELS 3 Zrotation Xrotation Yrotation
                  JOINT rIndex1
                  {
                    OFFSET -4.1246 0.487 4.1451
                    CHANNELS 3 Zrotation Xrotation Yrotation
                    JOINT rIndex2
                    {
                      OFFSET -3.4052 -1.454 2.7682
                      CHANNELS 3 Zrotation Xrotation Yrotation
                      JOINT rIndex2_End
                      {
                        OFFSET -1.4531 -1.795 1.2713
                        CHANNELS 3 Zrotation Xrotation Yrotation
                        End Site
                        {
                          OFFSET -0.0145 -0.018 0.0127
                        }
                      }
                    }
                  }
                  JOINT rMid1
                  {
                    OFFSET -5.6954 0.21 2.1184
                    CHANNELS 3 Zrotation Xrotation Yrotation
                    JOINT rMid2
                    {
                      OFFSET -3.9766 -1.54 2.3863
                      CHANNELS 3 Zrotation Xrotation Yrotation
                      JOINT rMid2_End
                      {
                        OFFSET -1.4042 -1.926 1.125
                        CHANNELS 3 Zrotation Xrotation Yrotation
                        End Site
                        {
                          OFFSET -0.014 -0.0193 0.0113
                        }
                      }
                    }
                  }
                }
                JOINT rCarpal2
                {
                  OFFSET -2.0956 0.66 -0.3894
                  CHANNELS 3 Zrotation Xrotation Yrotation
                  JOINT rRing1
                  {
                    OFFSET -5.0395 -0.09 2.4971
                    CHANNELS 3 Zrotation Xrotation Yrotation
                    JOINT rRing2
                    {
                      OFFSET -3.7921 -1.552 1.4806
                      CHANNELS 3 Zrotation Xrotation Yrotation
                      JOINT rRing2_End
                      {
                        OFFSET -1.4655 -1.808 0.9609
                        CHANNELS 3 Zrotation Xrotation Yrotation
                        End Site
                        {
                          OFFSET -0.0147 -0.0181 0.0096
                        }
                      }
                    }
                  }
                  JOINT rPinky1
                  {
                    OFFSET -4.9141 -1.269 0.3592
                    CHANNELS 3 Zrotation Xrotation Yrotation
                    JOINT rPinky2
                    {
                      OFFSET -3.1477 -1.685 0.8462
                      CHANNELS 3 Zrotation Xrotation Yrotation
                      JOINT rPinky2_End
                      {
                        OFFSET -0.8055 -1.585 0.7955
                        CHANNELS 3 Zrotation Xrotation Yrotation
                        End Site
                        {
                          OFFSET -0.0081 -0.0158 0.008
                        }
                      }
                    }
                  }
                }
              }
            }
          }
        }
      }
    }
  }
  JOINT lThigh
  {
    OFFSET 8.367 -8.2066 0.5982
    CHANNELS 3 Zrotation Xrotation Yrotation
    JOINT lShin
    {
      OFFSET 2.1923 -43.463 -0.4932
      CHANNELS 3 Zrotation Xrotation Yrotation
      JOINT lFoot
      {
        OFFSET 0.7333 -45.8593 -2.6451
        CHANNELS 3 Zrotation Xrotation Yrotation
        End Site
        {
          OFFSET 2.6618 -4.2699 12.3931
        }
      }
    }
  }
  JOINT rThigh
  {
    OFFSET -8.367 -8.2066 0.5982
    CHANNELS 3 Zrotation Xrotation Yrotation
    JOINT rShin
    {
      OFFSET -2.1923 -43.463 -0.4931
      CHANNELS 3 Zrotation Xrotation Yrotation
      JOINT rFoot
      {
        OFFSET -0.7333 -45.8593 -2.6451
        CHANNELS 3 Zrotation Xrotation Yrotation
        End Site
        {
          OFFSET -2.6618 -4.2699 12.3931
        }
      }
    }
  }
}
MOTION
Frames:	6
Frame Time:	0.0333333
-0.988578 3.43767 -8.60548 -0 -87.8575 -0 0.569615 -1.38082 -0.465941 1.12847 -2.76615 -0.918524 1.12847 -2.76615 -0.918524 19.4593 1.78048 0.369885 9.36943 -2.98828 0.847607 -25.2256 0.447591 -18.1606 -52.9591 -7.26778 -10.2269 6.50508 3.76841 -6.6852 -45.6745 25.8966 5.73626 6.42555e-007 8.26939e-007 2.79741e-006 1.5839e-006 -2.55987e-007 -3.53215e-006 1.47031e-006 2.22564e-006 2.38394e-006 -3.97569e-015 -1.98785e-015 -0 6.42555e-007 8.26939e-007 2.79741e-006 1.5839e-006 -2.55987e-007 -3.53215e-006 1.47031e-006 2.22564e-006 2.38394e-006 6.42555e-007 8.26939e-007 2.79741e-006 1.5839e-006 -2.55987e-007 -3.53215e-006 1.47031e-006 2.22564e-006 2.38394e-006 -3.97569e-015 -1.98785e-015 -0 6.42555e-007 8.26939e-007 2.79741e-006 1.5839e-006 -2.55987e-007 -3.53215e-006 1.47031e-006 2.22564e-006 2.38394e-006 6.42555e-007 8.26939e-007 2.79741e-006 1.5839e-006 -2.55987e-007 -3.53215e-006 1.47031e-006 2.22564e-006 2.38394e-006 18.3939 -18.5762 -5.81924 57.9889 -4.59475 6.77422 14.0571 27.9422 59.6879 25.7541 10.4796 -2.37033 2.5842e-015 -4.77083e-015 3.18055e-015 2.98177e-015 0 1.59028e-015 1.2921e-014 3.18055e-015 -1.59028e-015 -3.77691e-015 -4.77083e-015 1.59028e-015 -4.57205e-015 0 4.77083e-015 3.77691e-015 -1.59028e-015 3.18055e-015 2.78299e-015 3.18055e-015 1.59028e-015 -4.57205e-015 0 4.77083e-015 3.77691e-015 -1.59028e-015 3.18055e-015 2.78299e-015 3.18055e-015 1.59028e-015 -3.77691e-015 -4.77083e-015 1.59028e-015 -4.57205e-015 0 4.77083e-015 3.77691e-015 -1.59028e-015 3.18055e-015 2.78299e-015 3.18055e-015 1.59028e-015 -4.57205e-015 0 4.77083e-015 3.77691e-015 -1.59028e-015 3.18055e-015 2.78299e-015 3.18055e-015 1.59028e-015 1.75511 -12.7237 -4.69994 -12.5359 33.1355 25.439 7.71157 26.8581 -2.18445 -0.0658224 -10.7811 10.9488 11.551 28.9886 -25.6604 3.40272 25.164 -6.36627 
-0.989017 3.37724 -8.60195 -0 -87.7071 -0 0.56981 -1.4692 -0.461017 1.12833 -2.94287 -0.907839 1.12833 -2.94287 -0.907838 19.5405 1.63739 0.367381 9.45723 -3.08956 0.851891 -25.2801 0.636169 -18.0624 -52.9591 -7.26776 -10.2269 6.50509 3.76841 -6.68519 -45.6745 25.8966 5.73625 -1.59028e-015 -3.57812e-015 -9.54166e-015 7.95139e-016 -3.57812e-015 -0 3.18055e-015 3.57812e-015 -0 -1.59028e-015 -3.57812e-015 -3.18055e-015 -2.38542e-015 -3.18055e-015 -3.18055e-015 4.77083e-015 3.57812e-015 -0 1.59028e-015 0 -6.36111e-015 -2.38542e-015 -3.18055e-015 -3.18055e-015 4.77083e-015 3.57812e-015 -0 1.59028e-015 0 -6.36111e-015 -1.59028e-015 -3.57812e-015 -3.18055e-015 -2.38542e-015 -3.18055e-015 -3.18055e-015 4.77083e-015 3.57812e-015 -0 1.59028e-015 0 -6.36111e-015 -2.38542e-015 -3.18055e-015 -3.18055e-015 4.77083e-015 3.57812e-015 -0 1.59028e-015 0 -6.36111e-015 18.4269 -18.355 -5.90752 57.9889 -4.59474 6.77421 14.0571 27.9422 59.6879 25.7541 10.4796 -2.37033 -1.15146e-007 -1.16575e-006 -6.66085e-007 -3.37934e-015 0 -7.95139e-016 -3.97569e-016 3.18055e-015 -7.95139e-016 1.78906e-015 -1.59028e-015 -0 -1.15146e-007 -1.16575e-006 -6.66085e-007 -3.18055e-015 -1.59028e-015 -7.95139e-016 -1.98785e-016 1.59028e-015 -0 -1.15146e-007 -1.16575e-006 -6.66085e-007 -3.18055e-015 -1.59028e-015 -7.95139e-016 -1.98785e-016 1.59028e-015 -0 1.78906e-015 -1.59028e-015 -0 -1.15146e-007 -1.16575e-006 -6.66085e-007 -3.18055e-015 -1.59028e-015 -7.95139e-016 -1.98785e-016 1.59028e-015 -0 -1.15146e-007 -1.16575e-006 -6.66085e-007 -3.18055e-015 -1.59028e-015 -7.95139e-016 -1.98785e-016 1.59028e-015 -0 1.95384 -12.9338 -4.12576 -12.535 33.1341 25.4373 8.15348 26.8046 -2.81924 -0.282474 -11.0199 10.2297 11.5534 28.9947 -25.6684 2.88467 25.2268 -5.53702 
-0.989408 3.3168 -8.59836 -0 -87.5567 -0 0.570038 -1.55762 -0.4561 1.12828 -3.11967 -0.897167 1.12828 -3.11966 -0.897167 19.6217 1.49448 0.365016 9.54503 -3.19084 0.856249 -25.3352 0.824888 -17.9638 -52.9591 -7.26775 -10.2269 6.50508 3.7684 -6.6852 -45.6744 25.8966 5.73626 -2.03892e-006 4.22076e-006 -1.00716e-006 -1.28052e-006 -1.65972e-006 -5.59886e-006 1.65151e-006 2.79943e-006 -8.2986e-007 -7.95139e-016 4.37326e-015 3.18055e-015 -2.03892e-006 4.22076e-006 -1.00716e-006 -1.28052e-006 -1.65972e-006 -5.59886e-006 1.65151e-006 2.79943e-006 -8.2986e-007 -2.03892e-006 4.22076e-006 -1.00716e-006 -1.28052e-006 -1.65972e-006 -5.59886e-006 1.65151e-006 2.79943e-006 -8.2986e-007 -7.95139e-016 4.37326e-015 3.18055e-015 -2.03892e-006 4.22076e-006 -1.00716e-006 -1.28052e-006 -1.65972e-006 -5.59886e-006 1.65151e-006 2.79943e-006 -8.2986e-007 -2.03892e-006 4.22076e-006 -1.00716e-006 -1.28052e-006 -1.65972e-006 -5.59886e-006 1.65151e-006 2.79943e-006 -8.2986e-007 18.4601 -18.1335 -5.99582 57.9889 -4.59473 6.77421 14.0571 27.9422 59.6879 25.7541 10.4796 -2.37033 -1.21259e-014 0 -1.59028e-015 3.65613e-007 -8.98574e-007 -1.4009e-006 3.18055e-015 4.77083e-015 -1.59028e-015 -1.21259e-014 1.59028e-015 -1.59028e-015 2.38542e-015 -3.18055e-015 8.74653e-015 3.65613e-007 -8.98574e-007 -1.4009e-006 -1.98785e-016 0 2.38542e-015 2.38542e-015 -3.18055e-015 8.74653e-015 3.65613e-007 -8.98574e-007 -1.4009e-006 -1.98785e-016 0 2.38542e-015 -1.21259e-014 1.59028e-015 -1.59028e-015 2.38542e-015 -3.18055e-015 8.74653e-015 3.65613e-007 -8.98574e-007 -1.4009e-006 -1.98785e-016 0 2.38542e-015 2.38542e-015 -3.18055e-015 8.74653e-015 3.65613e-007 -8.98574e-007 -1.4009e-006 -1.98785e-016 0 2.38542e-015 2.15447 -13.1429 -3.55054 -12.5341 33.1332 25.4357 8.59458 26.7472 -3.45307 -0.502234 -11.2512 9.50902 11.5542 28.9958 -25.6748 2.36539 25.2833 -4.70714 
-0.989751 3.25636 -8.5947 -0 -87.4063 -0 0.570252 -1.64595 -0.451156 1.12822 -3.29626 -0.886443 1.12822 -3.29625 -0.886443 19.7029 1.35165 0.36262 9.63285 -3.29206 0.860795 -25.3904 1.01324 -17.8653 -52.9591 -7.26777 -10.2269 6.50508 3.76841 -6.6852 -45.6745 25.8966 5.73627 1.32417e-031 -2.38542e-015 3.18055e-015 2.38542e-015 5.56597e-015 -6.36111e-015 -3.18055e-015 -3.57812e-015 -3.18055e-015 1.32417e-031 -2.38542e-015 3.18055e-015 2.38542e-015 5.56597e-015 -6.36111e-015 -3.18055e-015 -3.57812e-015 -3.18055e-015 -1.59028e-015 -2.78299e-015 3.18055e-015 2.38542e-015 5.56597e-015 -6.36111e-015 -3.18055e-015 -3.57812e-015 -3.18055e-015 -1.59028e-015 -2.78299e-015 3.18055e-015 1.32417e-031 -2.38542e-015 3.18055e-015 2.38542e-015 5.56597e-015 -6.36111e-015 -3.18055e-015 -3.57812e-015 -3.18055e-015 -1.59028e-015 -2.78299e-015 3.18055e-015 2.38542e-015 5.56597e-015 -6.36111e-015 -3.18055e-015 -3.57812e-015 -3.18055e-015 -1.59028e-015 -2.78299e-015 3.18055e-015 18.4938 -17.9125 -6.08413 57.9889 -4.59472 6.77422 14.0571 27.9422 59.6879 25.7541 10.4796 -2.37033 1.20987e-007 -1.89071e-006 -3.29982e-008 -1.20987e-007 1.89071e-006 3.29982e-008 1.20987e-007 -1.89071e-006 -3.29982e-008 -8.94531e-015 0 3.18055e-015 1.20987e-007 -1.89071e-006 -3.29982e-008 -1.20987e-007 1.89071e-006 3.29982e-008 1.20987e-007 -1.89071e-006 -3.29982e-008 1.20987e-007 -1.89071e-006 -3.29982e-008 -1.20987e-007 1.89071e-006 3.29982e-008 1.20987e-007 -1.89071e-006 -3.29982e-008 -8.94531e-015 0 3.18055e-015 1.20987e-007 -1.89071e-006 -3.29982e-008 -1.20987e-007 1.89071e-006 3.29982e-008 1.20987e-007 -1.89071e-006 -3.29982e-008 1.20987e-007 -1.89071e-006 -3.29982e-008 -1.20987e-007 1.89071e-006 3.29982e-008 1.20987e-007 -1.89071e-006 -3.29982e-008 2.35732 -13.3469 -2.974 -12.5325 33.1293 25.433 9.03476 26.6855 -4.08582 -0.724632 -11.4843 8.78734 11.556 29.0011 -25.6823 1.84505 25.333 -3.87679 
-0.990044 3.1959 -8.59099 -0 -87.2559 -0 0.570488 -1.73428 -0.446207 1.12822 -3.4728 -0.875712 1.12822 -3.47278 -0.875712 19.784 1.20867 0.360565 9.72071 -3.39335 0.865516 -25.446 1.20158 -17.7665 -52.9591 -7.26778 -10.2269 6.50508 3.76841 -6.68519 -45.6745 25.8966 5.73626 -1.6655e-006 1.27593e-006 -3.29502e-006 -4.38602e-007 4.11258e-006 3.8154e-006 -1.02753e-006 2.10868e-006 -4.93573e-007 1.59028e-015 3.18055e-015 9.54166e-015 -1.6655e-006 1.27593e-006 -3.29502e-006 -4.38602e-007 4.11258e-006 3.8154e-006 -1.02753e-006 2.10868e-006 -4.93573e-007 -1.6655e-006 1.27593e-006 -3.29502e-006 -4.38602e-007 4.11258e-006 3.8154e-006 -1.02753e-006 2.10868e-006 -4.93573e-007 1.59028e-015 3.18055e-015 9.54166e-015 -1.6655e-006 1.27593e-006 -3.29502e-006 -4.38602e-007 4.11258e-006 3.8154e-006 -1.02753e-006 2.10868e-006 -4.93573e-007 -1.6655e-006 1.27593e-006 -3.29502e-006 -4.38602e-007 4.11258e-006 3.8154e-006 -1.02753e-006 2.10868e-006 -4.93573e-007 18.5277 -17.6914 -6.17247 57.9889 -4.59473 6.77421 14.0571 27.9422 59.6879 25.7541 10.4796 -2.37034 -6.55989e-015 1.59028e-015 -1.59028e-015 -3.18055e-015 1.59028e-015 -1.59028e-015 -2.98177e-015 1.59028e-015 -7.95139e-016 -6.36111e-015 1.59028e-015 -2.38542e-015 -8.54774e-015 0 5.56597e-015 5.96354e-016 -3.18055e-015 4.77083e-015 9.93923e-016 -3.18055e-015 2.38542e-015 -8.54774e-015 0 5.56597e-015 5.96354e-016 -3.18055e-015 4.77083e-015 9.93923e-016 -3.18055e-015 2.38542e-015 -6.36111e-015 1.59028e-015 -2.38542e-015 -8.54774e-015 0 5.56597e-015 5.96354e-016 -3.18055e-015 4.77083e-015 9.93923e-016 -3.18055e-015 2.38542e-015 -8.54774e-015 0 5.56597e-015 5.96354e-016 -3.18055e-015 4.77083e-015 9.93923e-016 -3.18055e-015 2.38542e-015 2.56207 -13.5493 -2.39643 -12.5308 33.1257 25.4304 9.47391 26.6195 -4.7174 -0.950049 -11.7106 8.06422 11.5566 29.0025 -25.6885 1.32385 25.3761 -3.04618 
-0.990288 3.13544 -8.58723 -0 -87.1055 -0 0.570746 -1.82251 -0.441256 1.12828 -3.64928 -0.864971 1.12828 -3.64926 -0.864971 19.8652 1.06575 0.359249 9.80856 -3.4946 0.870392 -25.5019 1.38985 -17.6675 -52.9591 -7.26778 -10.2269 6.50506 3.76842 -6.68519 -45.6744 25.8966 5.73626 -1.25407e-007 2.34015e-006 2.91217e-007 7.41565e-007 2.41916e-006 -7.24607e-006 -1.66836e-006 1.27364e-006 -3.29103e-006 3.97569e-016 -1.98785e-015 3.18055e-015 -1.25407e-007 2.34015e-006 2.91217e-007 7.41565e-007 2.41916e-006 -7.24607e-006 -1.66836e-006 1.27364e-006 -3.29103e-006 -1.25407e-007 2.34015e-006 2.91217e-007 7.41565e-007 2.41916e-006 -7.24607e-006 -1.66836e-006 1.27364e-006 -3.29103e-006 3.97569e-016 -1.98785e-015 3.18055e-015 -1.25407e-007 2.34015e-006 2.91217e-007 7.41565e-007 2.41916e-006 -7.24607e-006 -1.66836e-006 1.27364e-006 -3.29103e-006 -1.25407e-007 2.34015e-006 2.91217e-007 7.41565e-007 2.41916e-006 -7.24607e-006 -1.66836e-006 1.27364e-006 -3.29103e-006 18.5619 -17.4703 -6.26085 57.9889 -4.59473 6.77422 14.0571 27.9422 59.6879 25.7541 10.4796 -2.37033 6.92219e-008 3.91248e-007 -7.49859e-007 6.92218e-008 3.91248e-007 -7.49859e-007 1.38444e-007 7.82495e-007 -1.49972e-006 5.96354e-015 -1.59028e-015 -0 6.92219e-008 3.91248e-007 -7.49859e-007 6.92218e-008 3.91248e-007 -7.49859e-007 1.38444e-007 7.82495e-007 -1.49972e-006 6.92219e-008 3.91248e-007 -7.49859e-007 6.92218e-008 3.91248e-007 -7.49859e-007 1.38444e-007 7.82495e-007 -1.49972e-006 5.96354e-015 -1.59028e-015 -0 6.92219e-008 3.91248e-007 -7.49859e-007 6.92218e-008 3.91248e-007 -7.49859e-007 1.38444e-007 7.82495e-007 -1.49972e-006 6.92219e-008 3.91248e-007 -7.49859e-007 6.92218e-008 3.91248e-007 -7.49859e-007 1.38444e-007 7.82495e-007 -1.49972e-006 2.76873 -13.7496 -1.81781 -12.529 33.1218 25.4276 9.91197 26.5495 -5.34771 -1.1782 -11.9333 7.33993 11.5569 29.0028 -25.6943 0.801983 25.4127 -2.21549 
